<?xml version="1.0" encoding="UTF-8" standalone="no"?>
<svg
   version="1.1"
   x="0px"
   y="0px"
   viewBox="0 0 70.000011 56.666676"
   enable-background="new 0 0 100 100"
   xml:space="preserve"
   id="svg8"
   sodipodi:docname="pings.svg"
   width="168"
   height="136"
   inkscape:version="1.3 (0e150ed, 2023-07-21)"
   xmlns:inkscape="http://www.inkscape.org/namespaces/inkscape"
   xmlns:sodipodi="http://sodipodi.sourceforge.net/DTD/sodipodi-0.dtd"
   xmlns="http://www.w3.org/2000/svg"
   xmlns:svg="http://www.w3.org/2000/svg"><defs
     id="defs8"><clipPath
       clipPathUnits="userSpaceOnUse"
       id="clipPath70"><path
         id="path71"
         style="fill:#ff0000;fill-opacity:1;fill-rule:nonzero;stroke:none;stroke-width:1"
         d="M 15.064121,8.8771804 V 63.125234 h 60.592458 v -11.84326 c -0.06803,-0.016 -0.135396,-0.0355 -0.201009,-0.06022 -0.06845,1.7e-5 -0.136629,-7.9e-5 -0.205079,0 -0.0829,1.25e-4 -0.166125,1.63e-4 -0.249025,8.33e-4 -0.09768,8.34e-4 -0.195325,0.0017 -0.292967,0.0049 -0.127412,0.0042 -0.253937,0.01317 -0.380858,0.02521 -0.243284,0.02471 -0.486867,0.04985 -0.729167,0.08301 -1.860713,0.254604 -2.128975,-1.621525 -0.268554,-1.878254 0.19945,-0.02754 0.399475,-0.04965 0.599771,-0.0708 0.0052,-0.14405 0.016,-0.29249 0.05778,-0.460613 0.02025,-0.0815 0.04404,-0.161893 0.07243,-0.240886 1.5e-4,-0.08399 3.38e-4,-0.168287 8.33e-4,-0.252278 8.34e-4,-0.131242 0.0017,-0.262699 0.0057,-0.39388 0.0056,-0.150592 0.01246,-0.301431 0.03904,-0.450033 0.0043,-0.02455 0.02271,-0.101821 0.03742,-0.167643 v -8.34e-4 c -0.06019,-0.211787 -0.09515,-0.428699 -0.08301,-0.649413 -4e-6,-0.121762 0,-0.243593 0,-0.365398 -0.220521,-0.01059 -0.441663,-0.01138 -0.661621,-0.02848 -1.591559,-0.123827 -1.499005,-1.679822 0.0025,-1.664225 0.04842,5e-4 0.09839,0.0042 0.149737,0.0081 0.165242,0.01247 0.331042,0.01192 0.496421,0.02035 -4.16e-4,-0.01681 -3.7e-5,-0.03364 -8.33e-4,-0.05046 -0.0037,-0.05919 -0.0033,-0.06896 -8.33e-4,-0.07406 -0.08179,-0.227007 -0.134863,-0.46325 -0.122884,-0.70638 -0.0021,-0.195943 -0.0049,-0.391674 -0.0097,-0.587566 -0.0063,-0.208332 -0.01071,-0.417153 -0.03663,-0.624186 -0.04071,-0.263412 -0.09509,-0.526615 -0.09359,-0.794271 -0.0021,-0.08504 -0.0012,-0.171118 -0.01221,-0.255533 -0.02942,-0.133714 -0.06751,-0.267105 -0.09359,-0.402019 -0.02263,-0.215846 -0.03004,-0.429861 -0.02358,-0.646973 7.5e-5,-0.178236 1.83e-4,-0.356429 8.33e-4,-0.534668 8.33e-4,-0.179338 0.0025,-0.358596 0.0049,-0.537923 0.0012,-0.08167 0.0054,-0.163282 0.0073,-0.244954 -0.0083,-0.252388 -0.01879,-0.504568 -0.02521,-0.756836 -0.02688,-0.999957 -0.01913,-2.000571 -0.04476,-3.000489 -0.02992,-0.921249 -0.102905,-1.839161 -0.150555,-2.759603 -0.03646,-0.731691 -0.05389,-1.464837 -0.06673,-2.197266 -0.02342,-0.583483 0.0097,-1.165673 0.0415,-1.748048 0.0089,-0.284802 0.02479,-0.568063 0.06185,-0.849609 -1.125663,-0.536062 -0.937775,-1.612617 0.03337,-1.630861 0.158567,-0.003 0.342429,0.02995 0.540363,0.09033 -6.3e-5,-0.01736 6.6e-5,-0.03473 0,-0.05208 -0.0017,-0.361686 -0.0071,-0.723234 -0.01058,-1.084798 -0.173375,0.0317 -0.347854,0.05589 -0.517575,0.10498 -0.379487,0.109764 -0.689046,0.09804 -0.922042,0.01383 -0.531875,0.50806 -1.160221,1.001363 -1.236975,0.06592 -0.0205,-0.250283 -0.01821,-0.140781 -0.01708,-0.327963 0.0021,-0.304143 0.0058,-0.608219 0.01383,-0.912272 0.01142,-0.328977 0.02404,-0.659395 0.07813,-0.984701 0.062,-0.355354 0.141692,-0.706715 0.212404,-1.060384 0.07166,-0.444749 0.155775,-0.887048 0.214842,-1.333822 0.03512,-0.320215 0.07975,-0.639662 0.118817,-0.959472 -0.819667,-0.544468 -0.512254,-1.604179 0.736492,-1.60726 0.103779,-2.57e-4 0.214045,0.0066 0.3304,0.02197 0.2373,0.03139 0.47445,0.06095 0.712891,0.08219 0.157488,0.01419 0.315609,0.02154 0.473634,0.02604 0.122121,0.0035 0.244862,0.0041 0.367025,0.0049 0.109221,6.66e-4 0.217929,6.66e-4 0.32715,8.33e-4 0.212608,-0.01107 0.420412,0.02378 0.621742,0.09277 0.0423,0.01668 0.06236,0.0183 0.09766,0.02197 V 8.8771804 Z M 73.850749,20.303777 c -0.0021,0.01466 -0.0037,0.02928 -0.0057,0.04395 0.0029,-0.014 0.0033,-0.03022 0.0065,-0.04395 -2.71e-4,-1.5e-5 -4.17e-4,1.6e-5 -8.34e-4,0 z m 1.802575,0.141602 c 8.34e-4,0.0037 0.0025,0.006 0.0033,0.0098 v -0.0098 c -0.0012,-6.8e-5 -0.0021,6.8e-5 -0.0033,0 z m -1.844892,0.186361 c -0.01854,0.143855 -0.0365,0.287925 -0.05208,0.432129 -0.06062,0.479128 -0.151404,0.953245 -0.227862,1.42985 -0.06701,0.362108 -0.15348,0.720162 -0.215659,1.083171 -0.0089,0.05788 -0.01613,0.115967 -0.02196,0.174153 0.238604,-0.0592 0.478637,-0.111473 0.721846,-0.148112 -0.013,-0.348079 -0.03071,-0.696159 -0.0586,-1.043294 -0.04444,-0.537574 -0.103383,-1.073473 -0.144042,-1.611328 -0.0085,-0.112192 -0.0075,-0.216745 -0.0017,-0.316569 z" /></clipPath></defs><sodipodi:namedview
     id="namedview8"
     pagecolor="#ffffff"
     bordercolor="#000000"
     borderopacity="0.25"
     inkscape:showpageshadow="2"
     inkscape:pageopacity="0.0"
     inkscape:pagecheckerboard="0"
     inkscape:deskcolor="#d1d1d1"
     showguides="true"
     inkscape:zoom="3.0748388"
     inkscape:cx="83.419008"
     inkscape:cy="69.271925"
     inkscape:window-width="1920"
     inkscape:window-height="1027"
     inkscape:window-x="0"
     inkscape:window-y="25"
     inkscape:window-maximized="1"
     inkscape:current-layer="svg8"><sodipodi:guide
       position="-15.654822,65.047766"
       orientation="1,0"
       id="guide15"
       inkscape:locked="false" /><sodipodi:guide
       position="-6.7276926,20.153354"
       orientation="0,-1"
       id="guide16"
       inkscape:locked="false" /><sodipodi:guide
       position="-4.6576336,15.10758"
       orientation="0,-1"
       id="guide17"
       inkscape:locked="false" /><sodipodi:guide
       position="-3.6226033,63.753979"
       orientation="0,-1"
       id="guide18"
       inkscape:locked="false" /></sodipodi:namedview><path
     d="m 9.8145195,26.146129 -7.2642413,0.59434 c 0,0 -0.5491869,0.01002 -0.9372489,0.142702 -0.00446,0 -0.00446,0 -0.00678,0.0017 -0.2677853,0.08227 -0.5083385,0.238406 -0.69669548,0.446593 -0.27232396,0.298849 -0.44479679,0.705148 -0.44479679,1.151741 0,0.446594 0.16793785,0.852894 0.44252649,1.151741 0.19062148,0.206509 0.42664178,0.362648 0.69896578,0.444915 0,0.0033 0.00233,0.0033 0.00446,0.0051 0.2496285,0.08395 0.5537254,0.114161 0.7466212,0.1276 l -0.00678,0.01349 7.4662182,0.60777 c -0.090769,-0.772305 -0.138431,-1.558041 -0.138431,-2.352172 0,-0.792452 0.047654,-1.569793 0.1361607,-2.335383 z"
     id="path1"
     style="stroke-width:1.95195" /><path
     fill="none"
     d="M 56.547043,11.693451 V 9.9770599 L 55.307016,9.8344677 c 0.09506,0.133086 0.207023,0.2524413 0.296804,0.3918643 z"
     id="path2"
     style="stroke-width:1.05624" /><g
     id="g6"
     transform="matrix(1.6789234,0,0,1.6789234,-72.322043,-14.898514)"><path
       d="m 65.646,33.411 c -0.35,0.083 -0.681,0.124 -1.013,0.125 h -10e-4 c -1.593,0 -3.067,-0.846 -4.15,-2.382 -1.01,-1.432 -1.566,-3.318 -1.565,-5.312 0,-4.693 3.098,-8.435 6.73,-7.567 l 2.797,0.369 c -0.296,-0.434 -0.627,-0.847 -1.011,-1.226 -0.717,-0.706 -1.598,-1.309 -2.665,-1.788 -1.8,-0.81 -4.135,-1.27 -7.145,-1.27 -0.576,0 -1.137,0.094 -1.679,0.257 -0.812,0.243 -1.576,0.66 -2.277,1.221 -2.178,1.737 -3.733,4.854 -4.067,8.523 -0.044,0.485 -0.073,0.978 -0.073,1.48 0,0.508 0.03,1.005 0.076,1.494 0.517,5.633 3.905,9.986 8.021,9.986 v 0 c 5.756,0 9.05,-1.673 10.827,-4.283 z"
       id="path5" /><path
       d="m 64.642,20.113 c -0.945,0 -1.85,0.551 -2.555,1.55 -0.778,1.104 -1.207,2.588 -1.207,4.18 0,1.592 0.429,3.077 1.207,4.18 0.704,1 1.608,1.55 2.544,1.551 0.188,-0.001 0.381,-0.026 0.594,-0.08 l 0.111,-0.021 4.406,-0.583 c -0.26,-0.603 -0.473,-1.243 -0.637,-1.917 -0.248,-1.023 -0.374,-2.076 -0.374,-3.129 0,-1.059 0.126,-2.111 0.373,-3.129 0.165,-0.675 0.378,-1.316 0.638,-1.918 L 65.224,20.194 C 65.012,20.14 64.821,20.113 64.642,20.113 Z"
       id="path6" /></g><g
     id="g7"
     transform="matrix(1.6789234,0,0,1.6789234,-72.322043,-14.898514)"><path
       d="M 84.278,25.792 C 84.259,21.042 81.636,17.2 78.402,17.2 c -0.001,0 0,0 -0.001,0 -0.036,0 -0.07,0.006 -0.106,0.007 -0.036,-0.001 -0.072,-0.007 -0.109,-0.008 0,0 -2.018,0.044 -3.448,0.699 -0.007,0.002 -0.01,0.008 -0.016,0.011 -0.98,0.408 -1.85,1.176 -2.542,2.188 -0.007,0.01 -0.015,0.019 -0.021,0.028 -0.696,1.027 -1.201,2.312 -1.451,3.739 -0.11,0.634 -0.176,1.294 -0.176,1.978 0,0.684 0.065,1.344 0.176,1.979 0.25,1.428 0.755,2.711 1.451,3.738 0.007,0.01 0.015,0.018 0.021,0.028 0.689,1.009 1.556,1.775 2.533,2.185 0.009,0.005 0.014,0.014 0.024,0.019 1.43,0.654 3.447,0.699 3.447,0.699 v -0.004 c 0.028,-10e-4 0.055,-0.007 0.084,-0.007 0.042,0.002 0.084,0.01 0.126,0.01 0.003,0 0.005,0 0.007,0 0.001,0 0.002,0 0.002,0 3.246,0 5.878,-3.871 5.877,-8.644 0.001,-10e-4 0,-10e-4 0,-0.002 0,0 0.001,-0.001 0,-0.001 0,-0.017 -0.002,-0.033 -0.002,-0.05 z m -5.877,6.407 c -1.982,0 -3.588,-2.845 -3.588,-6.354 0,-3.509 1.606,-6.354 3.588,-6.354 1.982,0 3.588,2.845 3.588,6.354 0,3.509 -1.606,6.354 -3.588,6.354 z"
       id="path7" /></g></svg>
