<?xml version="1.0" encoding="UTF-8" standalone="no"?>
<svg
   version="1.0"
   width="5120px"
   height="5120px"
   viewBox="0 0 5120 5120"
   preserveAspectRatio="xMidYMid meet"
   id="svg12"
   sodipodi:docname="pings-vector.svg"
   inkscape:export-filename="../Pictures/inkscape/pings-512.png"
   inkscape:export-xdpi="9.6000004"
   inkscape:export-ydpi="9.6000004"
   inkscape:version="1.3 (0e150ed, 2023-07-21)"
   xmlns:inkscape="http://www.inkscape.org/namespaces/inkscape"
   xmlns:sodipodi="http://sodipodi.sourceforge.net/DTD/sodipodi-0.dtd"
   xmlns="http://www.w3.org/2000/svg"
   xmlns:svg="http://www.w3.org/2000/svg">
  <defs
     id="defs12" />
  <sodipodi:namedview
     id="namedview12"
     pagecolor="#ffffff"
     bordercolor="#000000"
     borderopacity="0.25"
     inkscape:showpageshadow="2"
     inkscape:pageopacity="0.0"
     inkscape:pagecheckerboard="0"
     inkscape:deskcolor="#d1d1d1"
     inkscape:zoom="0.083303185"
     inkscape:cx="5864.1215"
     inkscape:cy="2292.8295"
     inkscape:window-width="1920"
     inkscape:window-height="1027"
     inkscape:window-x="1080"
     inkscape:window-y="25"
     inkscape:window-maximized="1"
     inkscape:current-layer="svg12" />
  <g
     fill="#ffffff"
     id="g1"
     style="display:none;opacity:0.101">
    <path
       d="M 0,2560 V 0 H 2560 5120 V 2560 5120 H 2560 0 Z m 3513,1539 c 69.2,-10.4 130,-41 183.4,-92.6 26.6,-25.6 26.4,-25.4 24.8,-71.4 -1.4,-44.4 -4.6,-88.6 -14.4,-197 -17.4,-196.4 -19.6,-235.4 -18.2,-338 1.2,-93.2 4.6,-130 17.4,-190.6 15,-70.6 44.4,-143.6 77.4,-192.2 l 13.6,-19.8 31.6,-12.6 c 37.8,-15 37.8,-15 78.4,-35.2 34,-17.2 37.8,-19.2 72,-39.2 135.4,-79.6 262,-206.6 347.4,-348.4 80.8,-134.2 128.8,-281.8 144,-443 3.4,-35.8 3.2,-134 0,-168 -8.2,-82 -23.8,-158.6 -46.6,-228.6 C 4303.6,1354 3988.4,1085 3610,1028.2 c -53.6,-8 -73.4,-9.2 -144,-9.2 -73.8,0.2 -97.8,2 -159,12.2 -205.6,34.8 -394,132 -543,280.8 -37.8,37.6 -64.2,68.2 -97.6,112.6 -24,32 -25.4,33.4 -32,33.4 -4.2,0 -19.4,-5.2 -36.2,-12.2 -77.2,-32.2 -172.6,-57.6 -259.2,-68.6 -78.8,-10 -164,-10.2 -244,-0.2 -216.6,27.2 -419.6,123 -578.2,273.2 -186.6,176.8 -296.2,403 -321.2,662.8 -3.6,38.6 -3,128.8 1.2,171 11,110.6 41.6,225.6 85,320.4 7.2,16 7.4,19.8 2.2,47.6 -4,21.2 -5,24.6 -15.6,58 -23,71.4 -64.8,143.4 -126,217 -60.2,72.4 -135.6,143.8 -276.4,261.8 -121.4,101.8 -199,169.8 -210.4,184.6 -8.8,11.6 -10.2,18.8 -8.8,43.4 3.2,48.6 16.6,102.2 34.8,138.4 24.6,48.8 67.6,96.8 116,129.4 50.4,34 111.6,52.6 176.8,54 20,0.4 23.6,-0.2 30.8,-4 13,-7 67.2,-67.2 156.8,-174.6 115.6,-138.6 150.4,-178.2 206,-234.8 22.6,-22.8 51,-50.4 63,-61.2 90.2,-80 174.2,-129.2 266,-155.8 22.6,-6.4 55.4,-12.6 63,-11.6 3.8,0.4 17.4,5.6 30,11.2 133.8,60.4 295.4,91 443.6,84 230.4,-11 446.6,-96.8 622.4,-247 51.2,-43.6 112.8,-109.6 154.6,-165.4 15.4,-20.4 18.4,-23.4 23.4,-23.4 3.2,0 18.2,5.6 33.4,12.2 15.2,6.8 36.6,15.6 47.6,19.8 19,7 20.4,8 27.6,18.2 34,47.8 64.2,116.4 79.4,180.8 19.8,82.8 25,144.8 23.4,269.8 -1.2,86 -3.2,121.2 -16.4,272.2 -8.4,96.6 -12.2,149.4 -15,200.4 -2.4,48.2 -1.6,51.2 18.8,71.2 58,56.4 124.4,90.6 193.2,99.2 21.8,2.8 65.8,2.4 87,-0.8 z m -770.6,-68 c 78.4,-13.8 146.8,-65.8 181.6,-138 37.4,-78 30,-165 -20.4,-238.4 -51.8,-75.4 -149,-118.4 -234.6,-103.4 -118.4,20.6 -207,123.2 -207,239.8 0,105 72.4,200.8 176,233 10.6,3.4 24.4,6.8 31,7.8 19.6,2.8 54.8,2.4 73.4,-0.8 z"
       id="path1" />
  </g>
  <g
     fill="#f2344d"
     id="g2"
     style="display:inline"
     transform="matrix(1.2327175,0,0,1.2327175,-595.65001,-595.87308)">
    <path
       d="m 2670.6,2680.6 c -129.8,-165.4 -204.6,-360.2 -218.8,-569.8 -4.4,-64.4 -0.8,-165 8.2,-228.8 20,-143.4 72.2,-283.8 151.6,-408.4 12.8,-20.2 15.6,-23.4 19.2,-22.4 3.8,0.8 8,-4 29.6,-32.6 33.4,-44.4 59.8,-75 97.6,-112.6 149,-148.8 337.4,-246 543,-280.8 62.6,-10.4 84.8,-12 165,-12.2 76.8,0 95.6,1.2 150,9.2 290.4,43.6 549.4,214 707,465.6 86.6,138.4 136.4,286.6 153.4,457.2 3.4,34.4 3.4,143.6 0,180 -19.8,209.4 -97.2,401.6 -224.8,558.6 l -11.8,14.4 H 3462 2684.4 Z"
       id="path2" />
  </g>
  <g
     fill="#40525c"
     id="g3"
     transform="matrix(1.2327175,0,0,1.2327175,-595.65001,-595.87308)">
    <path
       d="m 1734.2,2851.4 -544.6,-544.8 1.4,-12.8 c 18,-169.6 72.4,-323.6 162.6,-461.8 143.2,-219.4 363.8,-376.4 617,-439 187.4,-46.4 386.4,-38.4 569.4,23 30.4,10 90.4,33.6 93.2,36.6 0.6,0.6 -6,12.2 -14.8,25.6 -79.8,124.6 -132.2,265.8 -152.4,409.8 -9,63.6 -12.4,155.2 -8.2,216.8 14.2,209.6 89,404.4 218.8,569.8 11.4,14.6 14.6,17.4 19.4,17.4 4.6,0 8.8,3.6 24.6,21.6 23.2,26.2 73.4,75.6 100.4,98.6 58.6,50 135.8,102 196.6,131.8 19,9.4 22.4,11.8 22.4,15.8 0,3.2 -0.8,4.2 -3,3.6 -2,-0.8 -8.4,6.2 -20.4,22.2 -88.2,117.4 -202.2,216.4 -329.8,286.6 -120.8,66.4 -250.8,106.6 -396.8,122.6 l -11,1.4 z"
       id="path3" />
  </g>
  <g
     fill="#cfab6e"
     id="g5"
     transform="matrix(1.2327175,0,0,1.2327175,-595.65001,-595.87308)">
    <path
       d="m 3420,4105.8 c -69,-8.6 -135.2,-42.8 -193.2,-99.2 -21,-20.6 -21.8,-23.2 -18.8,-79.2 2.8,-55.4 6.2,-102.2 15,-204.4 12.8,-147 15.2,-186.8 16.4,-267 1.4,-98.6 -2,-153.6 -13.6,-217 -14.6,-79.6 -36,-139.2 -72.2,-200 -17.6,-29.8 -24.4,-38.4 -31.4,-40 -8.6,-1.8 -18.2,-13.4 -18.2,-22 0,-6.8 0.2,-7 8.2,-7 4.6,0 22.4,4.6 39.6,10.2 97.4,31.6 211.8,49.8 312.6,49.8 103.6,0 215.2,-17.6 315.8,-50 17.4,-5.4 34.2,-10 37.6,-10 5.8,0 6.2,0.4 6.2,7.6 0,9 -8,20.8 -16.2,23.8 -11.8,4.6 -52.6,76.4 -69,121.6 -31.8,87.8 -42.4,154.2 -44.2,276.8 -1.4,96.6 0.6,131.6 19.2,344.2 12,136.2 17.2,220 14.4,232.4 -2.8,11.6 -7.4,18.4 -25.8,36 -53.4,51.6 -114.2,82.2 -183.4,92.6 -21.6,3.2 -76.6,3.6 -99,0.8 z"
       id="path4" />
    <path
       d="m 949.4,3944 c -53,-4.8 -100.8,-19.2 -141,-42.8 -43,-25.2 -82.8,-62.4 -111.8,-104.6 -33.2,-48.2 -52.8,-111.4 -56,-180.6 -1.4,-30 0,-36.8 9,-48.6 11.4,-14.8 89,-82.8 210.4,-184.6 178,-149.4 261,-232.6 326.4,-327.8 46.4,-67.4 80.2,-145.6 92.6,-213.2 2.6,-15.4 2.8,-18 0,-24.4 -3,-7.4 -4,-20.6 -1.8,-26.2 0.8,-2.2 3.6,-3.2 8.6,-3 h 7.2 l 11.4,23.4 c 23,47 52.6,96 84.6,140.2 101.6,140.4 228.2,248.4 384,327.2 15.8,8 16,8.4 16.6,16.4 l 0.6,8 -12.6,1.2 c -6.8,0.6 -14,0.2 -16,-0.8 -2.4,-1.2 -10.2,-0.6 -24,2.2 -66.6,13.4 -135.6,43.2 -199.6,85.6 -57.2,38 -100,74.6 -164,139.6 -55.6,56.6 -90.4,96.2 -206,234.8 -90.2,108 -143.8,167.8 -156.8,174.4 -9.6,5 -31,6.2 -61.8,3.6 z"
       id="path5" />
  </g>
  <g
     fill="#e4bd7c"
     id="g11"
     transform="matrix(1.2327175,0,0,1.2327175,-595.65001,-595.87308)">
    <path
       d="m 3498,4106 c 0,-1 1.4,-2 3,-2 1.6,0 3,1 3,2 0,1.2 -1.4,2 -3,2 -1.6,0 -3,-0.8 -3,-2 z"
       id="path6" />
    <path
       d="m 3568,4092.2 c 0,-1 2,-2.2 4.6,-3 7.2,-1.8 8.6,-1.2 4.6,1.8 -4.4,3.4 -9.2,4 -9.2,1.2 z"
       id="path7" />
    <path
       d="m 2139.8,3398 c -124.2,-6.4 -244.6,-34.8 -355.6,-83.8 -12.6,-5.6 -23.2,-10.6 -23.8,-11.2 -2.2,-2.2 2,-3.8 12.6,-4.6 7,-0.6 10.8,-1.8 10.4,-3.2 -0.4,-1.2 -7.8,-5.8 -16.6,-10.2 -44.2,-22.4 -77.4,-41.8 -115.8,-67.6 -149.6,-100.2 -273.4,-240.6 -352.6,-399.4 -6.2,-12.6 -11.6,-23.4 -12,-24 -1.4,-2.2 -4.4,5.4 -4.4,11.4 0,19.2 -3.6,13.6 -24,-37.4 -34.8,-87 -57.8,-182.2 -67.2,-278 -3.8,-39 -5,-130.8 -2,-170.8 l 1.6,-23.8 548.8,548.8 c 301.8,301.8 548.8,549.4 548.8,550 0,3.4 -105.6,6 -148.2,3.8 z"
       id="path8" />
    <path
       d="m 1670,3322 c 0,-1 1.4,-2 3,-2 1.6,0 3,1 3,2 0,1.2 -1.4,2 -3,2 -1.6,0 -3,-0.8 -3,-2 z"
       id="path9" />
    <path
       d="m 1748,3302 c 0,-1 1.4,-2 3,-2 1.6,0 3,1 3,2 0,1.2 -1.4,2 -3,2 -1.6,0 -3,-0.8 -3,-2 z"
       id="path10" />
    <path
       d="m 3392,3033.8 c -80.8,-6 -171.6,-23.4 -246.6,-47.8 -17.4,-5.6 -32.6,-10 -33.6,-9.6 -1.2,0.4 1.2,4.8 5,9.6 10.4,13.2 9.4,14.6 -6.2,8.8 -63,-23.6 -150,-69.4 -206.6,-108.4 -69.6,-48 -135.8,-106.4 -190.6,-168.4 l -22.2,-25 388.4,-0.6 c 213.6,-0.2 563.2,-0.2 776.6,0 l 388.4,0.6 -17.6,20 c -49.2,56 -111,112.8 -169,155.2 -31.6,23 -60.4,41.4 -104,66.2 -11.2,6.4 -69.8,35.8 -82.6,41.6 -24.4,10.8 -65.6,26 -67.4,25 -1.2,-0.8 1.4,-5.6 6,-11.4 8.4,-10.6 10,-14.8 5,-12.8 -15.2,5.8 -67,21 -96,28.2 -61,15.2 -121.4,24.6 -184.6,29 -35.2,2.4 -108.6,2.2 -142.4,-0.2 z"
       id="path11" />
  </g>
  <g
     fill="#ff9f00"
     id="g12"
     transform="matrix(1.2327175,0,0,1.2327175,-595.65001,-595.87308)">
    <path
       d="m 2663,4037.8 c -6.6,-1 -20.4,-4.4 -31,-7.8 -89.8,-28 -157,-103.6 -173,-194.8 -3.8,-22.8 -3.8,-65.6 0,-88.4 20.6,-117.6 125,-204.8 245,-204.8 123.6,0 227.2,87.8 247.2,209.6 3.8,23.2 2.8,69.8 -2,91.4 -22.4,100.4 -101.4,176.6 -200.8,194 -19,3.2 -65.2,3.8 -85.4,0.8 z"
       id="path12" />
  </g>
</svg>
